<mxfile host="app.diagrams.net" modified="2023-11-02T07:58:27.305Z" agent="Mozilla/5.0 (X11; Linux x86_64; rv:109.0) Gecko/20100101 Firefox/119.0" etag="55KricjfUPFzNbjuXRKS" version="22.0.8" type="github">
  <diagram name="Page-1" id="OtuP3fQ9j7pjtBNKjtr_">
    <mxGraphModel dx="7997" dy="4829" grid="1" gridSize="10" guides="1" tooltips="1" connect="1" arrows="1" fold="1" page="1" pageScale="1" pageWidth="827" pageHeight="1169" math="0" shadow="0">
      <root>
        <mxCell id="0" />
        <mxCell id="1" parent="0" />
        <mxCell id="G6MMdijwoQtLrwHFYhwR-2" value="" style="group" vertex="1" connectable="0" parent="1">
          <mxGeometry x="-290.00000000000006" y="-500" width="1962.66" height="1719" as="geometry" />
        </mxCell>
        <mxCell id="_1h7GxN1JVA4XlIc9eJa-1" value="" style="verticalLabelPosition=bottom;html=1;verticalAlign=top;align=center;strokeColor=none;fillColor=#00BEF2;shape=mxgraph.azure.cloud;" parent="G6MMdijwoQtLrwHFYhwR-2" vertex="1">
          <mxGeometry x="1137.967939972715" y="535.5140186915887" width="762.0904354706685" height="495.3504672897196" as="geometry" />
        </mxCell>
        <mxCell id="_1h7GxN1JVA4XlIc9eJa-3" value="" style="image;aspect=fixed;html=1;points=[];align=center;fontSize=12;image=img/lib/azure2/general/Browser.svg;" parent="G6MMdijwoQtLrwHFYhwR-2" vertex="1">
          <mxGeometry x="174.04215552523874" y="752.3971962616822" width="348.0833889630619" height="278.4667111704495" as="geometry" />
        </mxCell>
        <mxCell id="_1h7GxN1JVA4XlIc9eJa-6" value="" style="endArrow=classic;startArrow=classic;html=1;rounded=0;strokeColor=#1C71D8;entryX=0.126;entryY=0.962;entryDx=0;entryDy=0;entryPerimeter=0;exitX=0.939;exitY=0.6;exitDx=0;exitDy=0;exitPerimeter=0;strokeWidth=5;" parent="G6MMdijwoQtLrwHFYhwR-2" source="_1h7GxN1JVA4XlIc9eJa-5" target="_1h7GxN1JVA4XlIc9eJa-1" edge="1">
          <mxGeometry width="50" height="50" relative="1" as="geometry">
            <mxPoint x="1137.967939972715" y="1338.7850467289718" as="sourcePoint" />
            <mxPoint x="1405.725102319236" y="1071.0280373831774" as="targetPoint" />
          </mxGeometry>
        </mxCell>
        <mxCell id="_1h7GxN1JVA4XlIc9eJa-7" value="" style="endArrow=classic;startArrow=classic;html=1;rounded=0;strokeColor=#1C71D8;entryX=0.5;entryY=1;entryDx=0;entryDy=0;entryPerimeter=0;exitX=0.05;exitY=0.5;exitDx=0;exitDy=0;exitPerimeter=0;strokeWidth=5;" parent="G6MMdijwoQtLrwHFYhwR-2" source="_1h7GxN1JVA4XlIc9eJa-1" target="_1h7GxN1JVA4XlIc9eJa-4" edge="1">
          <mxGeometry width="50" height="50" relative="1" as="geometry">
            <mxPoint x="1202.22965893588" y="803.2710280373832" as="sourcePoint" />
            <mxPoint x="1459.2765347885404" y="1124.5794392523364" as="targetPoint" />
          </mxGeometry>
        </mxCell>
        <mxCell id="_1h7GxN1JVA4XlIc9eJa-8" value="" style="endArrow=classic;startArrow=classic;html=1;rounded=0;strokeColor=#1C71D8;entryX=0.035;entryY=0.714;entryDx=0;entryDy=0;entryPerimeter=0;strokeWidth=5;" parent="G6MMdijwoQtLrwHFYhwR-2" source="_1h7GxN1JVA4XlIc9eJa-3" target="_1h7GxN1JVA4XlIc9eJa-1" edge="1">
          <mxGeometry width="50" height="50" relative="1" as="geometry">
            <mxPoint x="763.1079126875852" y="1030.8644859813085" as="sourcePoint" />
            <mxPoint x="1030.8650750341064" y="763.1074766355141" as="targetPoint" />
          </mxGeometry>
        </mxCell>
        <mxCell id="_1h7GxN1JVA4XlIc9eJa-13" value="&lt;font color=&quot;#ffffff&quot; style=&quot;font-size: 50px;&quot;&gt;Entirely hosted on Azure&lt;/font&gt;" style="text;html=1;align=center;verticalAlign=middle;resizable=0;points=[];autosize=1;strokeColor=none;fillColor=none;" parent="G6MMdijwoQtLrwHFYhwR-2" vertex="1">
          <mxGeometry x="1245.9985129604365" y="1060.0044859813086" width="570" height="70" as="geometry" />
        </mxCell>
        <mxCell id="_1h7GxN1JVA4XlIc9eJa-15" value="" style="group" parent="G6MMdijwoQtLrwHFYhwR-2" vertex="1" connectable="0">
          <mxGeometry x="602.4536152796726" width="1097.8043656207367" height="267.75700934579436" as="geometry" />
        </mxCell>
        <mxCell id="_1h7GxN1JVA4XlIc9eJa-16" value="" style="group" parent="_1h7GxN1JVA4XlIc9eJa-15" vertex="1" connectable="0">
          <mxGeometry width="1097.8043656207367" height="267.75700934579436" as="geometry" />
        </mxCell>
        <mxCell id="_1h7GxN1JVA4XlIc9eJa-4" value="" style="verticalLabelPosition=bottom;html=1;verticalAlign=top;align=center;strokeColor=none;fillColor=#00BEF2;shape=mxgraph.azure.laptop;pointerEvents=1;" parent="_1h7GxN1JVA4XlIc9eJa-16" vertex="1">
          <mxGeometry width="446.29763819918145" height="267.75700934579436" as="geometry" />
        </mxCell>
        <mxCell id="_1h7GxN1JVA4XlIc9eJa-11" value="&lt;div style=&quot;font-size: 50px;&quot;&gt;&lt;font color=&quot;#ffffff&quot; style=&quot;font-size: 50px;&quot;&gt;Available for all OS &lt;br&gt;&lt;/font&gt;&lt;/div&gt;&lt;div style=&quot;font-size: 50px;&quot;&gt;&lt;font color=&quot;#ffffff&quot; style=&quot;font-size: 50px;&quot;&gt;through the web&lt;/font&gt;&lt;/div&gt;" style="text;html=1;align=center;verticalAlign=middle;resizable=0;points=[];autosize=1;strokeColor=none;fillColor=none;" parent="_1h7GxN1JVA4XlIc9eJa-16" vertex="1">
          <mxGeometry x="482.5457435197817" y="50.00140186915888" width="450" height="130" as="geometry" />
        </mxCell>
        <mxCell id="_1h7GxN1JVA4XlIc9eJa-5" value="" style="verticalLabelPosition=bottom;html=1;verticalAlign=top;align=center;strokeColor=none;fillColor=#00BEF2;shape=mxgraph.azure.mobile;pointerEvents=1;" parent="G6MMdijwoQtLrwHFYhwR-2" vertex="1">
          <mxGeometry x="661.3601909959073" y="1344.1401869158879" width="262.4020190995907" height="374.8598130841121" as="geometry" />
        </mxCell>
        <mxCell id="_1h7GxN1JVA4XlIc9eJa-12" value="&lt;div style=&quot;font-size: 50px;&quot;&gt;&lt;font color=&quot;#ffffff&quot; style=&quot;font-size: 50px;&quot;&gt;Accessible&amp;nbsp;&lt;/font&gt;&lt;/div&gt;&lt;div style=&quot;font-size: 50px;&quot;&gt;&lt;font color=&quot;#ffffff&quot; style=&quot;font-size: 50px;&quot;&gt;through&lt;/font&gt;&lt;/div&gt;&lt;div style=&quot;font-size: 50px;&quot;&gt;&lt;font color=&quot;#ffffff&quot; style=&quot;font-size: 50px;&quot;&gt;mobile&amp;nbsp;&lt;/font&gt;&lt;/div&gt;&lt;div style=&quot;font-size: 50px;&quot;&gt;&lt;font color=&quot;#ffffff&quot; style=&quot;font-size: 50px;&quot;&gt;apps (in dev)&lt;/font&gt;&lt;/div&gt;" style="text;html=1;align=center;verticalAlign=middle;resizable=0;points=[];autosize=1;strokeColor=none;fillColor=none;" parent="G6MMdijwoQtLrwHFYhwR-2" vertex="1">
          <mxGeometry x="996.3587858117326" y="1419.0001869158878" width="310" height="250" as="geometry" />
        </mxCell>
        <mxCell id="_1h7GxN1JVA4XlIc9eJa-18" value="&lt;div style=&quot;font-size: 50px;&quot;&gt;&lt;font color=&quot;#ffffff&quot; style=&quot;font-size: 50px;&quot;&gt;Compatible with all&amp;nbsp;&lt;/font&gt;&lt;/div&gt;&lt;div style=&quot;font-size: 50px;&quot;&gt;&lt;font color=&quot;#ffffff&quot; style=&quot;font-size: 50px;&quot;&gt;major browsers&lt;/font&gt;&lt;/div&gt;" style="text;html=1;align=center;verticalAlign=middle;resizable=0;points=[];autosize=1;strokeColor=none;fillColor=none;" parent="G6MMdijwoQtLrwHFYhwR-2" vertex="1">
          <mxGeometry x="110" y="1070.0034579439252" width="460" height="130" as="geometry" />
        </mxCell>
      </root>
    </mxGraphModel>
  </diagram>
</mxfile>
